<svg width="532" height="815" viewBox="0 0 532 815" fill="none" xmlns="http://www.w3.org/2000/svg">
<rect width="532" height="815" fill="#E5E5E5"/>
<g clip-path="url(#clip0)">
<rect width="532" height="815" rx="36" fill="#0E0E2C"/>
<path fill-rule="evenodd" clip-rule="evenodd" d="M388.295 499.937L461.694 571.964L457.715 576.08L384.316 504.053L388.295 499.937Z" fill="white" fill-opacity="0.07"/>
<path d="M111.296 498.006L107.27 502.128L181.078 574.213L185.104 570.091L111.296 498.006Z" fill="white" fill-opacity="0.07"/>
<path d="M250.91 498.434L246.884 502.556L320.692 574.641L324.718 570.518L250.91 498.434Z" fill="white" fill-opacity="0.07"/>
<path fill-rule="evenodd" clip-rule="evenodd" d="M250.415 498.428L177.428 570.592L181.544 574.708L254.531 502.544L250.415 498.428Z" fill="white" fill-opacity="0.07"/>
<path fill-rule="evenodd" clip-rule="evenodd" d="M388.295 499.663L316.68 570.593L320.796 574.708L392.274 503.779L388.295 499.663Z" fill="white" fill-opacity="0.07"/>
<path fill-rule="evenodd" clip-rule="evenodd" d="M508 632.206L409.623 728V727.816L409.439 728L286.422 606.281L163.956 727.265H163.772H163.588L40.9389 606.281L-29.1202 675.415L-67 638.458L40.755 532H40.9389H41.1228L163.772 652.983L286.422 532L286.973 532.552L409.623 653.535L470.12 595.25L508 632.206Z" fill="white" fill-opacity="0.07"/>
<path fill-rule="evenodd" clip-rule="evenodd" d="M376 165.2L300.207 239V238.858L300.065 239L205.288 145.227L110.937 238.433H110.795H110.653L16.1599 145.227L-37.8161 198.488L-67 170.016L16.0182 88H16.1599H16.3016L110.795 181.206L205.288 88L205.713 88.425L300.207 181.631L346.816 136.728L376 165.2Z" fill="white" fill-opacity="0.07"/>
</g>
<defs>
<clipPath id="clip0">
<rect width="532" height="815" fill="white"/>
</clipPath>
</defs>
</svg>
